<?xml version="1.0" encoding="UTF-8" standalone="no"?>
<svg width="586px" height="220px" viewBox="0 0 586 220" version="1.1" xmlns="http://www.w3.org/2000/svg" xmlns:xlink="http://www.w3.org/1999/xlink" xmlns:sketch="http://www.bohemiancoding.com/sketch/ns">
    <!-- Generator: Sketch 3.4.3 (16044) - http://www.bohemiancoding.com/sketch -->
    <title>business-class-logo-blue</title>
    <desc>Created with Sketch.</desc>
    <defs>
        <rect id="path-1" x="0" y="0" width="152" height="104" rx="10.8094832"></rect>
    </defs>
    <g id="Page-1" stroke="none" stroke-width="1" fill="none" fill-rule="evenodd" sketch:type="MSPage">
        <g id="Original-Assets" sketch:type="MSArtboardGroup" transform="translate(-542.000000, -708.000000)">
            <g id="Group" sketch:type="MSLayerGroup" transform="translate(229.000000, 198.000000)">
                <g id="Business-Class" transform="translate(251.000000, 420.000000)">
                    <g id="Business-Class-Logo---Blue-Copy-2">
                        <g id="Logo" transform="translate(62.000000, 90.000000)">
                            <g id="Bottom-Row" transform="translate(31.823529, 167.888889)" fill="#42568C" sketch:type="MSShapeGroup">
                                <path d="M0.176470588,0.975111111 L0.176470588,50.6551111 L19.7604706,50.6551111 C24.5124706,50.6551111 28.7604706,49.6471111 31.9284706,47.1271111 C34.7364706,44.8951111 36.7524706,41.3671111 36.7524706,35.9671111 C36.7524706,29.7751111 34.1604706,25.6711111 27.6804706,24.5191111 C33.2964706,23.0071111 35.8164706,18.4711111 35.8164706,12.9271111 C35.8164706,8.60711111 34.3044706,5.72711111 31.7844706,3.85511111 C29.1924706,1.83911111 25.3764706,0.975111111 20.9844706,0.975111111 L0.176470588,0.975111111 Z M11.4804706,29.9191111 L18.8244706,29.9191111 C22.7124706,29.9191111 24.6564706,30.9991111 24.6564706,35.3191111 C24.6564706,37.6951111 24.0804706,39.2071111 23.0724706,40.1431111 C22.0644706,41.0791111 20.4804706,41.4391111 18.3924706,41.4391111 L11.4804706,41.4391111 L11.4804706,29.9191111 Z M11.4804706,10.2631111 L18.8964706,10.2631111 C20.4804706,10.2631111 21.7764706,10.4791111 22.4964706,11.1271111 C23.2164706,11.7751111 23.7204706,12.9271111 23.7204706,15.0151111 C23.7204706,20.0551111 20.8404706,21.2791111 16.8084706,21.2791111 L11.4804706,21.2791111 L11.4804706,10.2631111 Z M44.6724706,0.975111111 L44.6724706,33.1591111 C44.6724706,37.7671111 45.2484706,42.4471111 48.2004706,45.9751111 C50.8644706,49.1431111 55.6884706,51.5191111 63.7524706,51.5191111 C72.0324706,51.5191111 77.3604706,48.9271111 80.2404706,45.2551111 C82.9044706,41.8711111 83.5524706,37.4791111 83.5524706,32.7991111 L83.5524706,0.975111111 L71.8884706,0.975111111 L71.8884706,32.9431111 C71.8884706,38.5591111 71.2404706,41.4391111 64.1844706,41.4391111 C56.7684706,41.4391111 56.3364706,38.2711111 56.3364706,32.9431111 L56.3364706,0.975111111 L44.6724706,0.975111111 Z M124.088471,4.43111111 C120.272471,1.26311111 113.864471,0.111111111 109.112471,0.111111111 C104.144471,0.111111111 99.7524706,1.33511111 96.1524706,3.99911111 C92.8404706,6.44711111 90.5364706,9.83111111 90.5364706,15.0871111 C90.5364706,32.7991111 113.360471,27.9031111 113.360471,36.4711111 C113.360471,40.7911111 110.552471,41.6551111 107.168471,41.6551111 C103.424471,41.6551111 98.6004706,40.5751111 95.3604706,37.9831111 L89.6004706,46.5511111 C93.6324706,50.2231111 100.760471,51.5191111 106.016471,51.5191111 C110.840471,51.5191111 115.520471,50.3671111 118.904471,48.0631111 C122.432471,45.6871111 125.168471,41.6551111 125.168471,35.8951111 C125.168471,17.8951111 102.344471,22.3591111 102.344471,14.7991111 C102.344471,10.9111111 104.648471,9.97511111 108.176471,9.97511111 C111.200471,9.97511111 115.592471,10.7671111 118.616471,12.8551111 L124.088471,4.43111111 Z M132.080471,0.975111111 L132.080471,50.6551111 L143.744471,50.6551111 L143.744471,0.975111111 L132.080471,0.975111111 Z M153.608471,0.975111111 L153.608471,50.6551111 L164.768471,50.6551111 L164.408471,16.7431111 L180.248471,50.6551111 L195.008471,50.6551111 L195.008471,0.975111111 L183.848471,0.975111111 L184.208471,34.8871111 L168.368471,0.975111111 L153.608471,0.975111111 Z M204.944471,0.975111111 L204.944471,50.6551111 L235.040471,50.6551111 L235.040471,41.0071111 L216.320471,41.0071111 L216.320471,30.3511111 L233.024471,30.3511111 L233.024471,20.6311111 L216.320471,20.6311111 L216.320471,10.6951111 L234.680471,10.6951111 L234.680471,0.975111111 L204.944471,0.975111111 Z M273.560471,4.43111111 C269.744471,1.26311111 263.336471,0.111111111 258.584471,0.111111111 C253.616471,0.111111111 249.224471,1.33511111 245.624471,3.99911111 C242.312471,6.44711111 240.008471,9.83111111 240.008471,15.0871111 C240.008471,32.7991111 262.832471,27.9031111 262.832471,36.4711111 C262.832471,40.7911111 260.024471,41.6551111 256.640471,41.6551111 C252.896471,41.6551111 248.072471,40.5751111 244.832471,37.9831111 L239.072471,46.5511111 C243.104471,50.2231111 250.232471,51.5191111 255.488471,51.5191111 C260.312471,51.5191111 264.992471,50.3671111 268.376471,48.0631111 C271.904471,45.6871111 274.640471,41.6551111 274.640471,35.8951111 C274.640471,17.8951111 251.816471,22.3591111 251.816471,14.7991111 C251.816471,10.9111111 254.120471,9.97511111 257.648471,9.97511111 C260.672471,9.97511111 265.064471,10.7671111 268.088471,12.8551111 L273.560471,4.43111111 Z M311.072471,4.43111111 C307.256471,1.26311111 300.848471,0.111111111 296.096471,0.111111111 C291.128471,0.111111111 286.736471,1.33511111 283.136471,3.99911111 C279.824471,6.44711111 277.520471,9.83111111 277.520471,15.0871111 C277.520471,32.7991111 300.344471,27.9031111 300.344471,36.4711111 C300.344471,40.7911111 297.536471,41.6551111 294.152471,41.6551111 C290.408471,41.6551111 285.584471,40.5751111 282.344471,37.9831111 L276.584471,46.5511111 C280.616471,50.2231111 287.744471,51.5191111 293.000471,51.5191111 C297.824471,51.5191111 302.504471,50.3671111 305.888471,48.0631111 C309.416471,45.6871111 312.152471,41.6551111 312.152471,35.8951111 C312.152471,17.8951111 289.328471,22.3591111 289.328471,14.7991111 C289.328471,10.9111111 291.632471,9.97511111 295.160471,9.97511111 C298.184471,9.97511111 302.576471,10.7671111 305.600471,12.8551111 L311.072471,4.43111111 Z M360.608471,36.5431111 C357.872471,39.6391111 354.488471,41.5111111 350.672471,41.5111111 C347.864471,41.5111111 346.280471,40.5031111 345.272471,39.1351111 C343.760471,37.1191111 343.112471,33.7351111 343.112471,26.1751111 C343.112471,18.4711111 343.760471,15.0151111 344.984471,13.0711111 C345.992471,11.4871111 347.864471,10.2631111 351.464471,10.2631111 C354.632471,10.2631111 357.944471,11.1991111 360.464471,13.5751111 L366.800471,5.58311111 C362.840471,1.33511111 357.152471,0.111111111 351.824471,0.111111111 C344.696471,0.111111111 340.016471,2.27111111 336.920471,5.58311111 C332.240471,10.4791111 331.016471,18.1111111 331.016471,26.3911111 C331.016471,33.9511111 332.024471,41.7271111 336.776471,46.5511111 C339.584471,49.5031111 343.832471,51.5191111 350.240471,51.5191111 C357.440471,51.5191111 362.984471,48.9991111 367.448471,43.7431111 L360.608471,36.5431111 Z M373.712471,0.975111111 L373.712471,50.6551111 L402.440471,50.6551111 L402.440471,40.2871111 L385.376471,40.2871111 L385.376471,0.975111111 L373.712471,0.975111111 Z M449.096471,50.6551111 L433.472471,0.975111111 L419.504471,0.975111111 L403.880471,50.6551111 L415.760471,50.6551111 L418.424471,41.2231111 L434.192471,41.2231111 L436.856471,50.6551111 L449.096471,50.6551111 Z M431.744471,31.9351111 L420.944471,31.9351111 L426.344471,12.7111111 L431.744471,31.9351111 Z M484.448471,4.43111111 C480.632471,1.26311111 474.224471,0.111111111 469.472471,0.111111111 C464.504471,0.111111111 460.112471,1.33511111 456.512471,3.99911111 C453.200471,6.44711111 450.896471,9.83111111 450.896471,15.0871111 C450.896471,32.7991111 473.720471,27.9031111 473.720471,36.4711111 C473.720471,40.7911111 470.912471,41.6551111 467.528471,41.6551111 C463.784471,41.6551111 458.960471,40.5751111 455.720471,37.9831111 L449.960471,46.5511111 C453.992471,50.2231111 461.120471,51.5191111 466.376471,51.5191111 C471.200471,51.5191111 475.880471,50.3671111 479.264471,48.0631111 C482.792471,45.6871111 485.528471,41.6551111 485.528471,35.8951111 C485.528471,17.8951111 462.704471,22.3591111 462.704471,14.7991111 C462.704471,10.9111111 465.008471,9.97511111 468.536471,9.97511111 C471.560471,9.97511111 475.952471,10.7671111 478.976471,12.8551111 L484.448471,4.43111111 Z M521.960471,4.43111111 C518.144471,1.26311111 511.736471,0.111111111 506.984471,0.111111111 C502.016471,0.111111111 497.624471,1.33511111 494.024471,3.99911111 C490.712471,6.44711111 488.408471,9.83111111 488.408471,15.0871111 C488.408471,32.7991111 511.232471,27.9031111 511.232471,36.4711111 C511.232471,40.7911111 508.424471,41.6551111 505.040471,41.6551111 C501.296471,41.6551111 496.472471,40.5751111 493.232471,37.9831111 L487.472471,46.5511111 C491.504471,50.2231111 498.632471,51.5191111 503.888471,51.5191111 C508.712471,51.5191111 513.392471,50.3671111 516.776471,48.0631111 C520.304471,45.6871111 523.040471,41.6551111 523.040471,35.8951111 C523.040471,17.8951111 500.216471,22.3591111 500.216471,14.7991111 C500.216471,10.9111111 502.520471,9.97511111 506.048471,9.97511111 C509.072471,9.97511111 513.464471,10.7671111 516.488471,12.8551111 L521.960471,4.43111111 Z" id="BUSINESS-CLASS"></path>
                            </g>
                            <g id="Top-Row" transform="translate(37.000000, 0.100000)">
                                <g id="Trello" transform="translate(183.529412, 0.000000)" fill="#42568C" sketch:type="MSShapeGroup">
                                    <path d="M264.649448,107.082074 C257.519878,110.805906 251.598571,120.72728 242.850656,126.507353 C242.275689,126.887255 241.700722,127.077206 241.317411,127.077206 C240.550789,127.077206 239.592511,126.317402 239.592511,122.898284 C239.592511,111.121324 243.425623,105.422794 246.683768,97.064951 C257.991449,68.002451 277.348666,43.1188725 294.597671,15.9558824 C295.93926,13.8664216 296.705882,11.5870098 296.705882,9.11764706 C296.705882,7.02818627 295.93926,5.31862745 294.980982,3.22916667 C294.214359,1.51960784 290.764558,0 286.931446,0 C284.823235,0 282.906678,0.18995098 280.415156,0.18995098 C271.407342,0.18995098 269.490786,13.2965686 267.382574,16.7156863 C253.008403,40.8394608 236.526021,70.6617647 228.093174,91.7463235 C226.285588,96.3665305 224.336328,100.986737 222.831442,105.723111 C213.711976,107.032214 207.318636,119.668503 196.968303,126.507353 C196.393336,126.887255 195.818369,127.077206 195.435058,127.077206 C194.668436,127.077206 193.710158,126.317402 193.710158,122.898284 C193.710158,111.121324 197.54327,105.422794 200.801415,97.064951 C212.109096,68.002451 231.466313,43.1188725 248.715318,15.9558824 C250.056907,13.8664216 250.823529,11.5870098 250.823529,9.11764706 C250.823529,7.02818627 250.056907,5.31862745 249.098629,3.22916667 C248.332006,1.51960784 244.882206,0 241.049093,0 C238.940882,0 237.024326,0.18995098 234.532803,0.18995098 C225.524989,0.18995098 223.608433,13.2965686 221.500221,16.7156863 C207.12605,40.8394608 190.643668,70.6617647 182.210821,91.7463235 C181.147541,94.464078 180.035239,97.1818324 178.993199,99.9232313 C169.854593,105.793072 161.840392,115.232981 150.555981,121.758739 C148.246398,123.100551 141.125182,128.084426 135.351223,128.084426 C134.003966,128.084426 132.849174,127.701051 131.694382,127.125988 C129.962194,126.359238 128.230007,122.717176 128.230007,121.567052 C128.230007,120.608614 128.422472,120.416927 130.347125,119.266802 C147.284071,109.107366 161.141573,94.5391178 173.074422,79.9708697 C177.501124,74.6036205 183.275083,64.0608094 183.275083,56.3933104 C183.275083,51.4094361 181.542895,45.6588119 175.576471,43.5502497 C171.342234,42.0167499 166.530601,41.25 162.681295,41.25 C152.480635,41.25 144.974488,45.8504994 140.740251,50.2593113 C136.757198,54.4943046 132.894568,58.8342414 129.274439,63.3126631 C125.234078,60.1916396 119.770904,58.854242 114.578431,58.854242 C108.158927,58.854242 96.0980392,66.7350566 89.873065,71.3482164 C88.9004128,72.1170764 88.3168215,72.5015064 87.9277606,72.5015064 C87.7332301,72.5015064 87.5386997,72.3092914 87.5386997,71.9248614 C87.5386997,71.7326464 87.9277606,70.0027115 87.9277606,66.9272716 C87.9277606,64.2362617 87.3441692,60.7763919 84.8152735,56.5476621 C84.2316821,55.5865871 80.7301342,53.4722222 76.4504644,53.4722222 C71.1981424,53.4722222 66.3348813,55.9710171 66.3348813,58.662027 C66.3348813,60.5841769 68.0856553,61.3530369 68.0856553,63.0829718 C68.0856553,64.0440468 67.3075335,68.4649916 66.1403509,72.6937214 C62.8333333,84.9954808 58.748194,97.1050253 54.4685243,109.21457 C52.1341589,115.942094 44.3529412,121.900759 44.3529412,129.204929 C44.3529412,131.511509 45.9091847,134.586949 48.0490196,136.893529 C51.5505676,140.737828 53.6904025,142.083333 56.8028896,142.083333 C58.1646027,142.083333 59.7208462,141.698903 61.0825593,140.545613 C64.000516,138.046819 65.5567595,135.548024 66.3348813,132.088154 C71.3926729,109.406785 85.9824561,94.0295854 102.128483,83.8421909 C107.575335,80.382321 114.967492,76.7302362 115.940144,76.7302362 C116.742879,76.7302362 117.909988,77.0248128 119.154422,77.3708507 C114.456882,84.8656155 110.654368,92.7819804 108.213615,101.248179 C107.443754,103.931804 107.058824,106.423741 107.058824,109.107366 C107.058824,113.516178 108.02115,118.116677 109.560872,122.525489 C111.677991,128.659488 115.142366,134.026737 119.953999,136.518675 C128.807403,141.119174 135.158757,143.611111 140.932716,143.611111 C144.204627,143.611111 146.706675,143.036049 149.40119,141.502549 C161.435477,134.721193 169.040414,129.496819 174.57397,124.868703 C175.005173,128.158057 176.172105,130.451956 178.952676,133.345588 C182.402477,136.954657 187.768834,140.183824 194.860091,141.703431 C196.010025,141.893382 197.159959,142.083333 198.309892,142.083333 C206.862588,142.083333 215.076023,134.820507 221.214196,128.01738 C221.898859,129.832639 223.025095,131.462061 224.835029,133.345588 C228.28483,136.954657 233.651187,140.183824 240.742444,141.703431 C241.892378,141.893382 243.042312,142.083333 244.192245,142.083333 C253.332962,142.083333 262.086166,133.787496 268.332605,126.623207 C270.773963,130.555077 276.254071,134.394743 282.75,137.51826 C284.661765,138.461709 286.955882,139.027778 289.058824,139.027778 C297.279412,139.027778 303.205882,132.423639 307.794118,127.517707 C319.647059,114.686808 326.147059,98.8368747 331.117647,78.835768 C331.5,77.3262506 332.073529,76.7601815 332.838235,76.7601815 C334.75,76.7601815 337.235294,76.7601815 339.911765,76.3828021 C345.073529,75.6280434 349.088235,73.9298362 353.867647,73.1750775 C356.735294,72.6090084 356.352941,71.66556 359.029412,70.7221116 C360.941176,69.9673528 362.470588,69.2125941 362.470588,67.3256972 C362.470588,64.1179726 356.544118,60.7215582 347.558824,60.7215582 C340.485294,60.7215582 336.279412,61.2876273 333.411765,61.2876273 C329.014706,61.2876273 327.867647,59.9667995 325,52.6079017 C325,52.6079017 327.867647,59.9667995 325,52.6079017 C324.426471,51.0983842 323.852941,50.3436255 322.132353,48.834108 C318.117647,45.4376937 313.147059,44.3055556 309.132353,44.3055556 C299.573529,44.3055556 291.352941,53.9287295 285.617647,62.042386 C284.279412,63.9292829 282.367647,65.4388004 281.029412,67.5143869 C273.04515,79.3349933 265.405364,92.6855806 264.649448,107.082074 Z M28.6372176,41.2146893 C29.2216506,41.2146893 29.6112726,41.4053672 29.6112726,41.9774011 C29.6112726,42.3587571 29.4164616,42.930791 28.0527846,45.7909605 C16.1693134,70.769774 7.98725117,96.1299435 0.779244017,124.159605 C0.584433013,124.922316 0,127.782486 0,130.642655 C0,133.312147 0.779244017,136.172316 3.50659808,137.69774 C8.76649519,140.748588 13.0523373,142.083333 15.9745023,142.083333 C20.2603444,142.083333 22.4032655,139.413842 22.4032655,135.028249 C22.4032655,131.214689 22.5980765,127.210452 23.1825095,124.159605 C28.6372176,96.1299435 36.8192798,74.2019774 49.4819951,51.3206215 C55.5211362,40.4519774 56.3003802,39.8799435 56.3003802,38.9265537 C56.3003802,38.5451977 56.1055692,37.9731638 55.7159472,37.4011299 C63.5083874,35.6850282 72.8593156,34.5409605 81.4309998,34.5409605 C82.4050548,34.5409605 86.3012749,35.8757062 86.8857079,36.4477401 C88.2493849,37.7824859 89.613062,39.1172316 91.950794,39.1172316 C93.898904,39.1172316 97.2106911,37.7824859 98.3795571,37.019774 C101.106911,35.1129944 102.470588,33.0155367 102.470588,29.5833333 C102.470588,26.3418079 90.197495,18.3333333 81.6258108,18.3333333 C71.1060166,18.3333333 61.5602773,19.6680791 52.5989711,21.3841808 C48.7027511,22.1468927 34.6763588,24.2443503 24.5461865,24.2443503 C14.8056363,24.2443503 15.3900693,22.9096045 11.2990382,22.9096045 C8.9613062,22.9096045 7.79244017,24.0536723 6.81838515,25.0070621 C5.84433013,25.960452 5.25989711,29.7740113 5.25989711,33.2062147 C5.25989711,34.9223164 5.25989711,36.2570621 6.23395214,37.4011299 C9.1561172,40.8333333 14.8056363,41.5960452 20.4551554,41.5960452 C25.3254306,41.5960452 28.0527846,41.2146893 28.6372176,41.2146893 Z M162.117647,56.1674528 C162.117647,57.9186321 161.547511,59.0860849 159.266968,62.7830189 C156.986425,66.4799528 157.936652,66.4799528 155.085973,70.3714623 C149.574661,77.9599057 142.733032,85.5483491 133.800905,93.9150943 C131.330317,96.25 130.950226,96.25 130.570136,96.25 C130.38009,96.25 130,96.0554245 130,95.6662736 C130,95.0825472 130.190045,94.3042453 132.090498,90.2181604 C137.9819,77.5707547 145.20362,69.2040094 153.18552,61.0318396 C157.556561,56.5566038 160.217195,55 161.167421,55 C161.737557,55 162.117647,55.1945755 162.117647,56.1674528 C162.117647,56.1674528 162.117647,55.1945755 162.117647,56.1674528 Z M312.098672,61.1111111 C312.296015,61.1111111 312.493359,61.297309 312.690702,61.6697049 C312.888046,62.2282986 313.282732,62.7868924 314.26945,63.531684 C315.058824,64.0902778 315.058824,66.6970486 315.058824,68.7452257 C315.058824,86.8064236 304.204934,101.702257 293.548387,116.784288 C291.180266,120.135851 289.798861,120.694444 288.614801,120.694444 C287.628083,120.694444 286.049336,118.273872 285.457306,116.784288 C284.667932,114.736111 284.470588,112.315538 284.470588,111.384549 C284.470588,96.8611111 299.074004,75.2621528 308.743833,63.3454861 C310.322581,61.297309 311.506641,61.1111111 312.098672,61.1111111 C312.098672,61.1111111 311.506641,61.1111111 312.098672,61.1111111 Z" id="Type"></path>
                                </g>
                                <g id="Business-Class-Mark" transform="translate(0.000000, 14.000000)">
                                    <path d="M58.1599618,0 C51.4442003,0 46,5.43620668 46,12.164237 L46,27.835763 C46,34.5538856 51.4437114,40 58.1599618,40 L93.8400382,40 C100.5558,40 106,34.5637933 106,27.835763 L106,12.164237 C106,5.4461144 100.556289,0 93.8400382,0 L58.1599618,0 Z M60.05554,10 C57.8157271,10 56,11.8101409 56,14.0472984 L56,25.9527016 C56,28.1879628 57.8226576,30 60.05554,30 L91.94446,30 C94.1842729,30 96,28.1898591 96,25.9527016 L96,14.0472984 C96,11.8120372 94.1773424,10 91.94446,10 L60.05554,10 Z" id="Handle" fill="#B2BACF" sketch:type="MSShapeGroup"></path>
                                    <g id="Briefcase" transform="translate(0.000000, 20.000000)">
                                        <mask id="mask-2" sketch:name="Briefcase Frame" fill="white">
                                            <use xlink:href="#path-1"></use>
                                        </mask>
                                        <use id="Briefcase-Frame" fill="#B2BACF" sketch:type="MSShapeGroup" xlink:href="#path-1"></use>
                                        <rect id="Rectangle-846" fill="#D2D7E4" sketch:type="MSShapeGroup" mask="url(#mask-2)" x="17" y="0" width="118" height="104"></rect>
                                        <rect id="Rectangle-845" fill="#42568C" sketch:type="MSShapeGroup" mask="url(#mask-2)" x="24" y="0" width="104" height="104"></rect>
                                        <g id="Lists" mask="url(#mask-2)" fill="#FFFFFF" sketch:type="MSShapeGroup">
                                            <g transform="translate(37.000000, 13.000000)">
                                                <rect id="Left-List" x="0" y="0" width="33" height="72" rx="5"></rect>
                                                <rect id="Right-List" x="45" y="0" width="33" height="43" rx="5"></rect>
                                            </g>
                                        </g>
                                    </g>
                                </g>
                            </g>
                        </g>
                    </g>
                </g>
            </g>
        </g>
    </g>
</svg>