<?xml version="1.0" encoding="UTF-8" standalone="no"?>
<svg width="301px" height="300px" viewBox="0 0 301 300" version="1.1" xmlns="http://www.w3.org/2000/svg" xmlns:xlink="http://www.w3.org/1999/xlink" xmlns:sketch="http://www.bohemiancoding.com/sketch/ns">
    <!-- Generator: Sketch 3.4.3 (16044) - http://www.bohemiancoding.com/sketch -->
    <title>trello-gold-mark-white</title>
    <desc>Created with Sketch.</desc>
    <defs></defs>
    <g id="Page-1" stroke="none" stroke-width="1" fill="none" fill-rule="evenodd" sketch:type="MSPage">
        <g id="Original-Assets" sketch:type="MSArtboardGroup" transform="translate(-2272.000000, -1508.000000)" fill="#FFFFFF">
            <g id="Group" sketch:type="MSLayerGroup" transform="translate(229.000000, 198.000000)">
                <g id="Gold" transform="translate(467.000000, 1260.000000)" sketch:type="MSShapeGroup">
                    <g id="Gold-Logo-Mark---White" transform="translate(1526.000000, 0.000000)">
                        <g id="Logo" transform="translate(50.000000, 50.000000)">
                            <g id="Crown" transform="translate(0.000000, 45.000000)">
                                <path d="M266.227273,74.6159549 C263.947006,71.8336043 262.447291,68.3758783 262.101602,64.5529514 C261.178207,54.3445624 268.831088,45.2359447 279.10136,44.3211198 C289.378275,43.4029923 298.532502,51.0122218 299.449253,61.2239135 C300.375969,71.4356052 292.72641,80.5409202 282.456138,81.4590478 C279.286604,81.7402639 276.223296,81.2107888 273.475231,80.0442145 C264.339684,102.14845 250.016867,139.243681 251.163696,151.963315 L254.129851,184.814446 C254.129851,184.814446 200.078061,183.397623 160.202701,186.954542 L67.5443874,201.459636 L64.4187969,168.621715 C63.3169007,156.39826 44.064184,124.566458 31.0323206,104.235094 C27.9549275,106.169309 24.3080143,107.288815 20.3981263,107.288815 C9.39143514,107.288815 0.46875,98.4170238 0.46875,87.4731133 C0.46875,76.5292028 9.39143514,67.6574114 20.3981263,67.6574114 C31.4048174,67.6574114 40.3275025,76.5292028 40.3275025,87.4731133 C40.3275025,90.2552072 39.7508767,92.9033911 38.7099743,95.3059565 C61.5372622,105.592011 97.7724677,120.798471 110.206539,119.690142 C123.445838,118.510037 135.41626,68.3152496 141.262314,39.1994478 C132.687294,36.9856524 126.355977,29.2372322 126.355977,20.0184873 C126.355977,9.07457685 135.278662,0.202785472 146.285353,0.202785472 C157.292044,0.202785472 166.214729,9.07457685 166.214729,20.0184873 C166.214729,28.1093295 161.337895,35.0676224 154.347577,38.1457783 C168.058035,65.5337347 193.467529,112.265371 206.684649,111.086825 C219.255131,109.96209 248.468154,88.518244 266.227273,74.6159549 Z M222.618186,148.578133 C223.239318,155.388129 217.456477,162.610952 210.145718,163.261568 C202.51941,163.941907 195.225258,157.884907 194.610769,151.078214 C193.883347,143.029736 200.004987,136.090938 207.627973,135.413901 C214.942054,134.756681 221.897407,140.529655 222.618186,148.578133 L222.618186,148.578133 Z M119.90218,157.587672 C120.526634,164.549588 114.747115,171.772412 106.815223,172.482474 C99.806726,173.103366 92.5125743,167.049669 91.8914421,160.091055 C91.1773061,152.194498 97.292303,145.259003 104.297479,144.628203 C112.236014,143.924745 119.188044,149.701022 119.90218,157.587672 L119.90218,157.587672 Z M175.458638,147.488269 C176.382033,157.696658 168.901874,166.943986 158.322696,167.888534 C147.736876,168.82978 139.034382,161.028999 138.114309,150.82061 C137.217487,140.912759 144.392062,131.698457 154.97124,130.753909 C165.547095,129.806058 174.565138,137.580418 175.458638,147.488269 L175.458638,147.488269 Z"></path>
                            </g>
                        </g>
                    </g>
                </g>
            </g>
        </g>
    </g>
</svg>