<?xml version="1.0" encoding="UTF-8" standalone="no"?>
<svg width="430px" height="280px" viewBox="0 0 430 280" version="1.1" xmlns="http://www.w3.org/2000/svg" xmlns:xlink="http://www.w3.org/1999/xlink" xmlns:sketch="http://www.bohemiancoding.com/sketch/ns">
    <!-- Generator: Sketch 3.4.3 (16044) - http://www.bohemiancoding.com/sketch -->
    <title>trello-gold-logo-white</title>
    <desc>Created with Sketch.</desc>
    <defs></defs>
    <g id="Page-1" stroke="none" stroke-width="1" fill="none" fill-rule="evenodd" sketch:type="MSPage">
        <g id="Original-Assets" sketch:type="MSArtboardGroup" transform="translate(-1721.000000, -1510.000000)" fill="#FFFFFF">
            <g id="Group" sketch:type="MSLayerGroup" transform="translate(229.000000, 198.000000)">
                <g id="Gold" transform="translate(467.000000, 1260.000000)" sketch:type="MSShapeGroup">
                    <g id="Gold-Logo---White" transform="translate(973.000000, 0.000000)">
                        <g id="Logo" transform="translate(52.000000, 52.000000)">
                            <g id="Gold-Type" transform="translate(96.738542, 208.888889)">
                                <path d="M54.8139833,30.0122222 L54.8139833,65.7722222 C48.449075,68.3188889 41.0070625,70.4733333 31.0221958,70.4733333 C19.4694208,70.4733333 12.4204958,67.73 7.52355833,62.93 C0.767783333,56.3666667 -0.405927083,47.06 -0.405927083,36.4777778 C-0.405927083,23.9388889 1.25747708,14.3366667 8.11096875,7.97 C12.8102521,3.56111111 19.8591771,0.915555556 30.9244792,0.915555556 C40.4196521,0.915555556 48.6456187,2.87555556 54.3231792,7.97 L43.4555312,21.0966667 C40.0287854,18.3533333 35.3295021,17.2766667 30.0439187,17.2766667 C25.5389583,17.2766667 23.0904896,18.2566667 21.7202354,20.02 C19.9591146,22.1755556 19.3694833,25.8977778 19.3694833,35.2055556 C19.3694833,46.9622222 20.0568312,50.39 21.9156687,52.7422222 C23.4835771,54.6022222 26.0275417,55.3866667 30.3370687,55.3866667 C33.1764042,55.3866667 35.9169125,55.0922222 38.0711208,54.5055556 L38.0711208,44.8066667 L28.3782937,44.8066667 L28.3782937,30.0133333 L54.8139833,30.0133333 L54.8139833,30.0122222 Z" id="Shape"></path>
                                <path d="M115.020775,63.7133333 C110.321492,68.2211111 103.272567,70.9633333 92.7968958,70.9633333 C82.3190042,70.9633333 75.3666854,68.22 70.7662292,63.6155556 C64.7955187,57.8355556 62.8345229,48.7244444 62.8345229,36.38 C62.8345229,23.7422222 64.8932354,14.0422222 71.5512937,7.67555556 C76.15175,3.26666667 83.2017854,0.426666667 93.8728896,0.426666667 C104.350781,0.426666667 111.203162,3.17 115.803619,7.67555556 C121.678833,13.5533333 123.735325,22.6644444 123.735325,35.2044444 C123.735325,47.8433333 121.77655,57.2466667 115.020775,63.7133333 L115.020775,63.7133333 Z M100.726381,19.04 C99.2584104,17.3744444 96.8099417,16.3955556 93.4831333,16.3955556 C89.9586708,16.3955556 87.2170521,17.4722222 85.5514271,19.7266667 C83.5926521,22.3711111 82.907525,26.9755556 82.907525,35.5955556 C82.907525,44.7066667 83.4949354,49.8011111 85.7468604,52.3488889 C87.3147687,54.1122222 89.7610167,54.9944444 92.9923292,54.9944444 C96.712225,54.9944444 99.3550167,53.8177778 100.921815,51.7611111 C103.077133,48.92 103.663433,44.5122222 103.663433,35.7922222 C103.663433,26.3877778 102.980527,21.5866667 100.726381,19.04 L100.726381,19.04 Z" id="Shape"></path>
                                <path d="M151.927694,1.89555556 L151.927694,52.7422222 L172.880146,52.7422222 L172.880146,69.4933333 L133.030623,69.4933333 L133.030623,1.89555556 L151.927694,1.89555556 L151.927694,1.89555556 Z" id="Shape"></path>
                                <path d="M209.100827,1.89555556 C218.892481,1.89555556 225.156342,4.34444444 229.368152,8.36 C235.241146,14.0422222 236.906771,23.1533333 236.906771,34.7144444 C236.906771,46.3722222 235.241146,56.7577778 228.387654,63.1255556 C224.080348,67.1411111 218.109637,69.4922222 209.688237,69.4922222 L181.001733,69.4922222 L181.001733,1.89444444 L209.100827,1.89444444 L209.100827,1.89555556 Z M199.996521,53.0344444 L208.024833,53.0344444 C211.353862,53.0344444 213.602456,52.25 215.073758,50.4866667 C216.737162,48.43 217.226856,44.4133333 217.226856,35.6944444 C217.226856,27.2688889 216.737163,22.7622222 214.976042,20.6077778 C213.603567,19.04 211.549296,18.3544444 208.12255,18.3544444 L199.996521,18.3544444 L199.996521,53.0344444 L199.996521,53.0344444 Z" id="Shape"></path>
                            </g>
                            <g id="Trello-Type" transform="translate(33.000000, 40.000000)">
                                <path d="M286.174781,116.577866 C277.836433,119.993761 271.256477,131.795166 261.249106,138.502674 C260.628562,138.918598 260.008018,139.12656 259.594322,139.12656 C258.766929,139.12656 257.732689,138.294712 257.732689,134.551396 C257.732689,121.657754 261.86965,115.418895 265.386068,106.268568 C277.590103,74.4503862 298.481758,47.2073678 317.098084,17.4688057 C318.54602,15.181224 319.373412,12.6856803 319.373412,9.98217469 C319.373412,7.69459299 318.54602,5.82293523 317.51178,3.53535354 C316.684388,1.66369578 312.961122,0 308.824161,0 C306.548832,0 304.480352,0.207961973 301.791327,0.207961973 C292.069468,0.207961973 290.000987,14.5573381 287.725659,18.3006536 C272.212054,44.7118241 254.42312,77.3618538 245.321805,100.445633 C243.325997,105.620436 241.170159,110.795239 239.531516,116.106216 C230.537577,118.724641 223.799717,131.438595 213.260355,138.502674 C212.639811,138.918598 212.019267,139.12656 211.605571,139.12656 C210.778178,139.12656 209.743938,138.294712 209.743938,134.551396 C209.743938,121.657754 213.880899,115.418895 217.397316,106.268568 C229.601352,74.4503862 250.493007,47.2073678 269.109333,17.4688057 C270.557269,15.181224 271.384661,12.6856803 271.384661,9.98217469 C271.384661,7.69459299 270.557269,5.82293523 269.523029,3.53535354 C268.695637,1.66369578 264.972371,0 260.83541,0 C258.560081,0 256.491601,0.207961973 253.802576,0.207961973 C244.080717,0.207961973 242.012236,14.5573381 239.736907,18.3006536 C224.223303,44.7118241 206.434369,77.3618538 197.333054,100.445633 C196.609502,102.321684 195.864917,104.197735 195.131568,106.080274 C194.905109,106.201885 194.673853,106.333762 194.437181,106.47653 C183.88793,112.715389 174.993463,123.737374 162.168883,131.224005 C159.686706,132.679739 152.033328,138.08675 145.827886,138.08675 C144.379949,138.08675 143.138861,137.670826 141.897773,137.04694 C140.03614,136.215092 138.174507,132.263815 138.174507,131.016043 C138.174507,129.976233 138.381356,129.768271 140.449836,128.520499 C158.652466,117.498515 173.545527,101.693405 186.370107,85.8882947 C191.127612,80.0653595 197.333054,68.627451 197.333054,60.3089721 C197.333054,54.9019608 195.471422,48.6631016 189.059131,46.3755199 C184.508474,44.7118241 179.337272,43.8799762 175.200311,43.8799762 C164.237364,43.8799762 156.170289,48.8710636 151.619632,53.6541889 C146.986811,58.6266724 142.505578,63.73251 138.342251,69.0178293 C133.992236,65.2420622 127.856587,63.6363636 122.040358,63.6363636 C115.214372,63.6363636 102.389792,72.1628045 95.7706541,77.1538919 C94.7364138,77.9857398 94.1158696,78.4016637 93.7021735,78.4016637 C93.4953254,78.4016637 93.2884774,78.1937017 93.2884774,77.7777778 C93.2884774,77.5698158 93.7021735,75.6981581 93.7021735,72.3707665 C93.7021735,69.4592989 93.0816293,65.7159834 90.3926044,61.14082 C89.7720602,60.1010101 86.0487951,57.8134284 81.4981376,57.8134284 C75.9132399,57.8134284 70.7420383,60.516934 70.7420383,63.4284017 C70.7420383,65.5080214 72.6036708,66.3398693 72.6036708,68.211527 C72.6036708,69.2513369 71.7762786,74.0344623 70.5351902,78.6096257 C67.0187731,91.9191919 62.6749637,105.020796 58.1243063,118.1224 C55.6421295,125.40107 47.3682069,131.847891 47.3682069,139.750446 C47.3682069,142.245989 49.0229914,145.573381 51.2983201,148.068925 C55.0215853,152.228164 57.296914,153.683898 60.6064831,153.683898 C62.0544195,153.683898 63.709204,153.267974 65.1571405,152.020202 C68.2598615,149.316696 69.914646,146.613191 70.7420383,142.869875 C76.120088,118.330362 91.6336928,101.693405 108.802082,90.6714201 C114.593828,86.9281046 122.454055,82.9768271 123.488295,82.9768271 C124.548808,82.9768271 126.207422,83.4688168 127.878719,83.9483082 C123.07951,91.8183413 119.190934,100.118057 116.662309,108.972074 C115.834916,111.883541 115.42122,114.587047 115.42122,117.498515 C115.42122,122.28164 116.455461,127.272727 118.110245,132.055853 C120.385574,138.710636 124.108839,144.533571 129.280041,147.237077 C138.795052,152.228164 145.621038,154.93167 151.82648,154.93167 C155.342897,154.93167 158.031922,154.307784 160.927795,152.644088 C174.523271,144.910487 182.858707,139.043368 188.877589,133.832094 C189.042624,139.115875 190.078593,142.043223 193.816637,145.989305 C197.539902,149.940582 203.331648,153.475936 210.985026,155.139632 C212.226115,155.347594 213.467203,155.555556 214.708292,155.555556 C223.464794,155.555556 231.891794,148.399997 238.389832,141.306516 C239.142181,142.854441 240.235484,144.332029 241.805388,145.989305 C245.528653,149.940582 251.320399,153.475936 258.973777,155.139632 C260.214866,155.347594 261.455954,155.555556 262.697043,155.555556 C272.954413,155.555556 282.759648,145.736849 289.541821,137.700855 C291.802212,142.401336 298.118822,147.048645 305.72144,150.77243 C307.789921,151.81224 310.272098,152.436126 312.547426,152.436126 C321.441893,152.436126 327.854183,145.157457 332.818537,139.750446 C345.643117,125.609031 352.675951,108.140226 358.054001,86.0962567 C358.467697,84.4325609 359.088241,83.808675 359.915633,83.808675 C361.984114,83.808675 364.673139,83.808675 367.569012,83.392751 C373.153909,82.5609031 377.497719,80.6892454 382.66892,79.8573975 C385.771641,79.2335116 385.357945,78.1937017 388.253818,77.1538919 C390.322299,76.322044 391.977083,75.4901961 391.977083,73.4105764 C391.977083,69.8752228 385.564793,66.1319073 375.842934,66.1319073 C368.189556,66.1319073 363.638898,66.7557932 360.536177,66.7557932 C355.778672,66.7557932 354.537584,65.3000594 351.434863,57.1895425 C351.434863,57.1895425 354.537584,65.3000594 351.434863,57.1895425 C350.814318,55.5258467 350.193774,54.6939988 348.332142,53.030303 C343.988332,49.2869875 338.610283,48.0392157 334.266473,48.0392157 C323.92407,48.0392157 315.029603,58.6452763 308.824161,67.5876411 C307.376225,69.6672608 305.307744,71.3309566 303.859808,73.6185383 C295.339068,86.4684761 287.180928,100.958901 286.174781,116.577866 Z M30.4066656,45.33571 C31.0272098,45.33571 31.4409059,45.543672 31.4409059,46.1675579 C31.4409059,46.5834819 31.2340578,47.2073678 29.7861214,50.3267974 C17.1683894,77.5698158 8.48077067,105.228758 0.82739226,135.799168 C0.620544195,136.631016 0,139.750446 0,142.869875 C0,145.781343 0.82739226,148.900772 3.72326517,150.564468 C9.30816293,153.89186 13.8588204,155.347594 16.9615413,155.347594 C21.5121988,155.347594 23.7875275,152.436126 23.7875275,147.653001 C23.7875275,143.493761 23.9943755,139.12656 24.6149197,135.799168 C30.4066656,105.228758 39.0942843,81.3131313 52.5394085,56.3576946 C58.9516985,44.5038622 59.7790908,43.8799762 59.7790908,42.8401664 C59.7790908,42.4242424 59.5722427,41.8003565 59.1585466,41.1764706 C67.4324692,39.3048128 77.3611763,38.057041 86.4624912,38.057041 C87.4967315,38.057041 91.6336928,39.5127748 92.254237,40.1366607 C93.7021735,41.5923945 95.1501099,43.0481283 97.6322867,43.0481283 C99.7007674,43.0481283 103.217184,41.5923945 104.458273,40.7605466 C107.354146,38.6809269 108.802082,36.3933452 108.802082,32.6500297 C108.802082,29.1146762 95.7706541,20.3802733 86.6693393,20.3802733 C75.4995438,20.3802733 65.3639886,21.8360071 55.8489776,23.7076649 C51.7120163,24.5395128 36.8189556,26.8270945 26.0628562,26.8270945 C15.7204529,26.8270945 16.3409971,25.3713607 11.9971878,25.3713607 C9.51501099,25.3713607 8.2739226,26.6191325 7.23968228,27.6589424 C6.20544195,28.6987522 5.58489776,32.8579917 5.58489776,36.6013072 C5.58489776,38.4729649 5.58489776,39.9286988 6.61913808,41.1764706 C9.72185906,44.9197861 15.7204529,45.751634 21.7190468,45.751634 C26.8902485,45.751634 29.7861214,45.33571 30.4066656,45.33571 Z M174.993463,62.5965538 C174.993463,64.4682115 174.372919,65.7159834 171.890742,69.6672608 C169.408565,73.6185383 170.442806,73.6185383 167.340085,77.7777778 C161.341491,85.8882947 153.89496,93.9988116 144.173101,102.941176 C141.484077,105.43672 141.07038,105.43672 140.656684,105.43672 C140.449836,105.43672 140.03614,105.228758 140.03614,104.812834 C140.03614,104.188948 140.242988,103.3571 142.311469,98.989899 C148.723759,85.4723708 156.583985,76.5300059 165.271604,67.7956031 C170.029109,63.0124777 172.924982,61.3487819 173.959223,61.3487819 C174.579767,61.3487819 174.993463,61.5567439 174.993463,62.5965538 C174.993463,62.5965538 174.993463,61.5567439 174.993463,62.5965538 Z M334.059625,68.0035651 C334.266473,68.0035651 334.473321,68.211527 334.680169,68.627451 C334.887017,69.2513369 335.300714,69.8752228 336.334954,70.7070707 C337.162346,71.3309566 337.162346,74.2424242 337.162346,76.5300059 C337.162346,96.7023173 325.785703,113.339275 314.615907,130.184195 C312.13373,133.92751 310.685794,134.551396 309.444705,134.551396 C308.410465,134.551396 306.755681,131.847891 306.135136,130.184195 C305.307744,127.896613 305.100896,125.193108 305.100896,124.153298 C305.100896,107.932264 320.407653,83.808675 330.543208,70.4991087 C332.197993,68.211527 333.439081,68.0035651 334.059625,68.0035651 C334.059625,68.0035651 333.439081,68.0035651 334.059625,68.0035651 Z" id="Type-"></path>
                            </g>
                            <g id="Crown" transform="translate(144.041667, 0.000000)">
                                <path d="M99.3448172,27.8925662 C98.4903644,26.8524817 97.9283971,25.5599318 97.7988619,24.1308642 C97.4528512,20.3148148 100.320508,16.9098765 104.168944,16.5679012 C108.019869,16.2246914 111.450105,19.0691358 111.793626,22.8864198 C112.140882,26.7037037 109.274469,30.1074074 105.426033,30.4506173 C104.238358,30.5557401 103.090487,30.3578143 102.060743,29.9217313 C98.6375072,38.1846271 93.2705178,52.0513822 93.700253,56.8061728 L94.811719,69.0864198 C94.811719,69.0864198 74.5576458,68.5567901 59.6157083,69.8864198 L24.8951512,75.308642 L23.7239423,63.0333333 C23.3110441,58.4640218 16.0967421,46.5648155 11.2134938,38.9646461 C10.0603452,39.6876847 8.69378826,40.1061728 7.22869048,40.1061728 C3.10430666,40.1061728 -0.239166667,36.7897638 -0.239166667,32.6987654 C-0.239166667,28.6077671 3.10430666,25.291358 7.22869048,25.291358 C11.3530743,25.291358 14.6965476,28.6077671 14.6965476,32.6987654 C14.6965476,33.738754 14.4804767,34.728685 14.0904338,35.6268001 C22.6441849,39.4718821 36.222098,45.1562855 40.881344,44.7419753 C45.8423218,44.3008345 50.3278311,25.5372678 52.5184415,14.6533432 C49.3052439,13.8257932 46.9327976,10.9293172 46.9327976,7.48321167 C46.9327976,3.39221332 50.2762709,0.0758042595 54.4006548,0.0758042595 C58.5250386,0.0758042595 61.8685119,3.39221332 61.8685119,7.48321167 C61.8685119,10.5076902 60.041084,13.1088047 57.4216995,14.2594657 C62.559228,24.4974957 72.0805735,41.9664844 77.0332405,41.5259259 C81.7436018,41.1054832 92.6901901,33.089451 99.3448172,27.8925662 Z M83.0037923,55.5407407 C83.2365405,58.0864198 81.0696173,60.7864198 78.3301583,61.0296296 C75.4724583,61.2839506 72.7392226,59.0197531 72.5089637,56.4753086 C72.2363869,53.4666667 74.5302637,50.8728395 77.386719,50.6197531 C80.1274226,50.3740741 82.7337048,52.5320988 83.0037923,55.5407407 L83.0037923,55.5407407 Z M44.5144565,58.908642 C44.7484494,61.5111111 42.5827708,64.2111111 39.6105637,64.4765432 C36.9843673,64.708642 34.2511315,62.445679 34.0183833,59.8444444 C33.7507851,56.8925926 36.0421726,54.3 38.6671244,54.0641975 C41.6418208,53.8012346 44.2468583,55.9604938 44.5144565,58.908642 L44.5144565,58.908642 Z M65.332353,55.1333333 C65.6783637,58.9493827 62.875428,62.4061728 58.9112405,62.7592593 C54.9445637,63.1111111 51.6835994,60.1950617 51.3388333,56.3790123 C51.0027798,52.6753086 53.6912083,49.2308642 57.6553958,48.8777778 C61.6183387,48.5234568 64.997544,51.4296296 65.332353,55.1333333 L65.332353,55.1333333 Z"></path>
                            </g>
                        </g>
                    </g>
                </g>
            </g>
        </g>
    </g>
</svg>